<svg width="189" height="91" viewBox="0 0 189 91" fill="none" xmlns="http://www.w3.org/2000/svg">
<g filter="url(#filter0_d_120:87)">
<path fill-rule="evenodd" clip-rule="evenodd" d="M109.3 11.88L114.564 0.623999H116.076L121.368 11.88H119.632L115.32 2.864L111.036 11.88H109.3ZM17.7969 22.8438C17.7969 23.7917 17.651 24.7031 17.3594 25.5781C17.0781 26.4531 16.6094 27.2292 15.9531 27.9062C15.2969 28.5729 14.4271 29.1094 13.3438 29.5156C12.2708 29.9115 10.9427 30.1094 9.35938 30.1094H7.01562V39H4.10938V16.1562H9.76562C11.1615 16.1562 12.3646 16.3073 13.375 16.6094C14.3854 16.901 15.2188 17.3333 15.875 17.9062C16.5312 18.4688 17.0156 19.1667 17.3281 20C17.6406 20.8333 17.7969 21.7812 17.7969 22.8438ZM7.01562 27.6406H9.03125C10 27.6406 10.8438 27.5573 11.5625 27.3906C12.2917 27.224 12.8906 26.9583 13.3594 26.5938C13.8385 26.2188 14.1979 25.7396 14.4375 25.1562C14.6771 24.5625 14.7969 23.8438 14.7969 23C14.7969 21.5208 14.3698 20.4271 13.5156 19.7188C12.6615 19 11.3281 18.6406 9.51562 18.6406H7.01562V27.6406ZM28.9375 39.3125C27.7917 39.3125 26.7448 39.1198 25.7969 38.7344C24.849 38.349 24.0312 37.7865 23.3438 37.0469C22.6667 36.3073 22.1406 35.3906 21.7656 34.2969C21.3906 33.2031 21.2031 31.9531 21.2031 30.5469C21.2031 29.1302 21.375 27.8646 21.7188 26.75C22.0625 25.6354 22.5469 24.6927 23.1719 23.9219C23.7969 23.1406 24.5417 22.5469 25.4062 22.1406C26.2812 21.7344 27.2448 21.5312 28.2969 21.5312C29.3281 21.5312 30.2552 21.7188 31.0781 22.0938C31.901 22.4583 32.599 22.9792 33.1719 23.6562C33.7448 24.3229 34.1823 25.1302 34.4844 26.0781C34.7969 27.0156 34.9531 28.0573 34.9531 29.2031V30.9688H24.1406C24.1927 32.9792 24.6146 34.4583 25.4062 35.4062C26.2083 36.3542 27.3958 36.8281 28.9688 36.8281C29.5 36.8281 29.9896 36.8021 30.4375 36.75C30.8958 36.6979 31.3333 36.625 31.75 36.5312C32.1771 36.4271 32.5885 36.3021 32.9844 36.1562C33.3802 36 33.7812 35.8281 34.1875 35.6406V38.1719C33.7708 38.3698 33.3594 38.5417 32.9531 38.6875C32.5573 38.8333 32.1458 38.9531 31.7188 39.0469C31.3021 39.1406 30.8646 39.2083 30.4062 39.25C29.9583 39.2917 29.4688 39.3125 28.9375 39.3125ZM28.2344 23.8906C27.0469 23.8906 26.1042 24.2969 25.4062 25.1094C24.7188 25.9219 24.3177 27.1042 24.2031 28.6562H31.8906C31.8906 27.9479 31.8177 27.3021 31.6719 26.7188C31.5365 26.125 31.3177 25.6198 31.0156 25.2031C30.724 24.7865 30.349 24.4635 29.8906 24.2344C29.4323 24.0052 28.8802 23.8906 28.2344 23.8906ZM46.7031 21.5312C47.0052 21.5312 47.3438 21.5469 47.7188 21.5781C48.0938 21.599 48.4167 21.6354 48.6875 21.6875L48.3125 24.3125C48.0208 24.2604 47.7188 24.2188 47.4062 24.1875C47.1042 24.1458 46.8177 24.125 46.5469 24.125C45.8906 24.125 45.2917 24.2604 44.75 24.5312C44.2083 24.7917 43.7396 25.1719 43.3438 25.6719C42.9583 26.1615 42.6562 26.7552 42.4375 27.4531C42.2292 28.1406 42.125 28.9062 42.125 29.75V39H39.2812V21.8438H41.5938L41.9375 24.9844H42.0625C42.3229 24.5365 42.599 24.1042 42.8906 23.6875C43.1927 23.2708 43.526 22.9062 43.8906 22.5938C44.2656 22.2708 44.6823 22.0156 45.1406 21.8281C45.599 21.6302 46.1198 21.5312 46.7031 21.5312ZM58.8438 39.3125C57.6979 39.3125 56.651 39.1198 55.7031 38.7344C54.7552 38.349 53.9375 37.7865 53.25 37.0469C52.5729 36.3073 52.0469 35.3906 51.6719 34.2969C51.2969 33.2031 51.1094 31.9531 51.1094 30.5469C51.1094 29.1302 51.2812 27.8646 51.625 26.75C51.9688 25.6354 52.4531 24.6927 53.0781 23.9219C53.7031 23.1406 54.4479 22.5469 55.3125 22.1406C56.1875 21.7344 57.151 21.5312 58.2031 21.5312C59.2344 21.5312 60.1615 21.7188 60.9844 22.0938C61.8073 22.4583 62.5052 22.9792 63.0781 23.6562C63.651 24.3229 64.0885 25.1302 64.3906 26.0781C64.7031 27.0156 64.8594 28.0573 64.8594 29.2031V30.9688H54.0469C54.099 32.9792 54.5208 34.4583 55.3125 35.4062C56.1146 36.3542 57.3021 36.8281 58.875 36.8281C59.4062 36.8281 59.8958 36.8021 60.3438 36.75C60.8021 36.6979 61.2396 36.625 61.6562 36.5312C62.0833 36.4271 62.4948 36.3021 62.8906 36.1562C63.2865 36 63.6875 35.8281 64.0938 35.6406V38.1719C63.6771 38.3698 63.2656 38.5417 62.8594 38.6875C62.4635 38.8333 62.0521 38.9531 61.625 39.0469C61.2083 39.1406 60.7708 39.2083 60.3125 39.25C59.8646 39.2917 59.375 39.3125 58.8438 39.3125ZM58.1406 23.8906C56.9531 23.8906 56.0104 24.2969 55.3125 25.1094C54.625 25.9219 54.224 27.1042 54.1094 28.6562H61.7969C61.7969 27.9479 61.724 27.3021 61.5781 26.7188C61.4427 26.125 61.224 25.6198 60.9219 25.2031C60.6302 24.7865 60.2552 24.4635 59.7969 24.2344C59.3385 24.0052 58.7865 23.8906 58.1406 23.8906ZM72.3281 39L66.4688 21.8438H69.4062L72.5156 31.3906C72.6302 31.7344 72.7656 32.1771 72.9219 32.7188C73.0781 33.2604 73.2344 33.8125 73.3906 34.375C73.5469 34.9375 73.6875 35.4688 73.8125 35.9688C73.9479 36.4688 74.0365 36.849 74.0781 37.1094H74.1875C74.2396 36.849 74.3281 36.4688 74.4531 35.9688C74.5781 35.4688 74.7188 34.9375 74.875 34.375C75.0312 33.8125 75.1875 33.2604 75.3438 32.7188C75.5 32.1771 75.6354 31.7344 75.75 31.3906L78.8594 21.8438H81.7969L75.9375 39H72.3281ZM98.5156 30.3906C98.5156 31.8177 98.3385 33.0885 97.9844 34.2031C97.6406 35.3073 97.1406 36.2396 96.4844 37C95.8385 37.75 95.0521 38.3229 94.125 38.7188C93.1979 39.1146 92.1562 39.3125 91 39.3125C89.9271 39.3125 88.9375 39.1146 88.0312 38.7188C87.125 38.3229 86.3385 37.75 85.6719 37C85.0156 36.2396 84.5 35.3073 84.125 34.2031C83.7604 33.0885 83.5781 31.8177 83.5781 30.3906C83.5781 28.974 83.75 27.7188 84.0938 26.625C84.4479 25.5208 84.9479 24.5938 85.5938 23.8438C86.2396 23.0833 87.026 22.5104 87.9531 22.125C88.8906 21.7292 89.9375 21.5312 91.0938 21.5312C92.1667 21.5312 93.1562 21.7292 94.0625 22.125C94.9688 22.5104 95.75 23.0833 96.4062 23.8438C97.0729 24.5938 97.5885 25.5208 97.9531 26.625C98.3281 27.7188 98.5156 28.974 98.5156 30.3906ZM86.5156 30.3906C86.5156 32.5677 86.8698 34.2083 87.5781 35.3125C88.2969 36.4062 89.4583 36.9531 91.0625 36.9531C92.6667 36.9531 93.8177 36.4062 94.5156 35.3125C95.224 34.2083 95.5781 32.5677 95.5781 30.3906C95.5781 28.2135 95.2188 26.5885 94.5 25.5156C93.7917 24.4323 92.6354 23.8906 91.0312 23.8906C89.4271 23.8906 88.2708 24.4323 87.5625 25.5156C86.8646 26.5885 86.5156 28.2135 86.5156 30.3906ZM113.594 36.7031H113.469C113.24 37.0573 112.969 37.3958 112.656 37.7188C112.354 38.0312 112 38.3073 111.594 38.5469C111.198 38.7865 110.75 38.974 110.25 39.1094C109.75 39.2448 109.188 39.3125 108.562 39.3125C107.594 39.3125 106.708 39.125 105.906 38.75C105.104 38.375 104.417 37.8177 103.844 37.0781C103.271 36.3281 102.828 35.401 102.516 34.2969C102.203 33.1927 102.047 31.9115 102.047 30.4531C102.047 28.9844 102.203 27.6979 102.516 26.5938C102.828 25.4792 103.271 24.5469 103.844 23.7969C104.417 23.0469 105.104 22.4844 105.906 22.1094C106.708 21.724 107.594 21.5312 108.562 21.5312C109.177 21.5312 109.734 21.599 110.234 21.7344C110.734 21.8698 111.182 22.0521 111.578 22.2812C111.984 22.5104 112.344 22.776 112.656 23.0781C112.969 23.3802 113.24 23.6979 113.469 24.0312H113.656C113.625 23.6771 113.594 23.3385 113.562 23.0156C113.542 22.7448 113.521 22.4688 113.5 22.1875C113.479 21.8958 113.469 21.6667 113.469 21.5V14.6875H116.312V39H114.016L113.594 36.7031ZM109.109 36.9531C109.901 36.9531 110.568 36.8333 111.109 36.5938C111.661 36.3542 112.104 35.9896 112.438 35.5C112.781 35.0104 113.031 34.401 113.188 33.6719C113.354 32.9323 113.448 32.0729 113.469 31.0938V30.4531C113.469 29.401 113.396 28.4688 113.25 27.6562C113.115 26.8333 112.875 26.1458 112.531 25.5938C112.198 25.0312 111.75 24.6094 111.188 24.3281C110.625 24.0365 109.922 23.8906 109.078 23.8906C107.672 23.8906 106.635 24.4583 105.969 25.5938C105.312 26.7292 104.984 28.3594 104.984 30.4844C104.984 32.6615 105.312 34.2865 105.969 35.3594C106.635 36.4219 107.682 36.9531 109.109 36.9531ZM88.2031 49.3906C87.0885 49.3906 86.0781 49.6042 85.1719 50.0312C84.2656 50.4479 83.4896 51.0521 82.8438 51.8438C82.2083 52.6354 81.7135 53.599 81.3594 54.7344C81.0156 55.8698 80.8438 57.151 80.8438 58.5781C80.8438 60.0469 80.9948 61.3542 81.2969 62.5C81.6094 63.6354 82.0729 64.5938 82.6875 65.375C83.3021 66.1562 84.0677 66.75 84.9844 67.1562C85.901 67.5625 86.974 67.7656 88.2031 67.7656C89.1302 67.7656 90.0104 67.6771 90.8438 67.5C91.6771 67.3125 92.5 67.099 93.3125 66.8594V69.3906C92.9062 69.5469 92.5 69.6875 92.0938 69.8125C91.6875 69.9271 91.2604 70.0208 90.8125 70.0938C90.375 70.1667 89.901 70.2188 89.3906 70.25C88.8906 70.2917 88.3333 70.3125 87.7188 70.3125C86.0104 70.3125 84.5312 70.0312 83.2812 69.4688C82.0312 68.9062 80.9948 68.1094 80.1719 67.0781C79.3594 66.0469 78.7552 64.8073 78.3594 63.3594C77.9635 61.9115 77.7656 60.3073 77.7656 58.5469C77.7656 56.8177 77.9896 55.2344 78.4375 53.7969C78.8958 52.3594 79.5625 51.125 80.4375 50.0938C81.3229 49.0625 82.4167 48.2604 83.7188 47.6875C85.0208 47.1146 86.5156 46.8281 88.2031 46.8281C89.3281 46.8281 90.401 46.9427 91.4219 47.1719C92.4427 47.401 93.3646 47.7344 94.1875 48.1719L92.9688 50.6094C92.3125 50.276 91.599 49.9896 90.8281 49.75C90.0573 49.5104 89.1823 49.3906 88.2031 49.3906ZM111.828 61.3906C111.828 62.8177 111.651 64.0885 111.297 65.2031C110.953 66.3073 110.453 67.2396 109.797 68C109.151 68.75 108.365 69.3229 107.438 69.7188C106.51 70.1146 105.469 70.3125 104.312 70.3125C103.24 70.3125 102.25 70.1146 101.344 69.7188C100.438 69.3229 99.651 68.75 98.9844 68C98.3281 67.2396 97.8125 66.3073 97.4375 65.2031C97.0729 64.0885 96.8906 62.8177 96.8906 61.3906C96.8906 59.974 97.0625 58.7188 97.4062 57.625C97.7604 56.5208 98.2604 55.5938 98.9062 54.8438C99.5521 54.0833 100.339 53.5104 101.266 53.125C102.203 52.7292 103.25 52.5312 104.406 52.5312C105.479 52.5312 106.469 52.7292 107.375 53.125C108.281 53.5104 109.062 54.0833 109.719 54.8438C110.385 55.5938 110.901 56.5208 111.266 57.625C111.641 58.7188 111.828 59.974 111.828 61.3906ZM99.8281 61.3906C99.8281 63.5677 100.182 65.2083 100.891 66.3125C101.609 67.4062 102.771 67.9531 104.375 67.9531C105.979 67.9531 107.13 67.4062 107.828 66.3125C108.536 65.2083 108.891 63.5677 108.891 61.3906C108.891 59.2135 108.531 57.5885 107.812 56.5156C107.104 55.4323 105.948 54.8906 104.344 54.8906C102.74 54.8906 101.583 55.4323 100.875 56.5156C100.177 57.5885 99.8281 59.2135 99.8281 61.3906ZM127.031 70V58.9531C127.031 57.599 126.755 56.5833 126.203 55.9062C125.661 55.2292 124.807 54.8906 123.641 54.8906C122.797 54.8906 122.089 55.026 121.516 55.2969C120.943 55.5677 120.479 55.9688 120.125 56.5C119.781 57.0312 119.531 57.6823 119.375 58.4531C119.229 59.224 119.156 60.1094 119.156 61.1094V70H116.312V52.8438H118.625L119.031 55.1562H119.188C119.448 54.7083 119.755 54.3229 120.109 54C120.474 53.6667 120.87 53.3906 121.297 53.1719C121.724 52.9531 122.177 52.7917 122.656 52.6875C123.135 52.5833 123.625 52.5312 124.125 52.5312C126.031 52.5312 127.464 53.0312 128.422 54.0312C129.391 55.0208 129.875 56.6094 129.875 58.7969V70H127.031ZM145.422 65.2969C145.422 66.1302 145.271 66.8594 144.969 67.4844C144.667 68.1094 144.229 68.6354 143.656 69.0625C143.094 69.4792 142.411 69.7917 141.609 70C140.807 70.2083 139.906 70.3125 138.906 70.3125C137.771 70.3125 136.797 70.2188 135.984 70.0312C135.172 69.8542 134.458 69.5885 133.844 69.2344V66.6406C134.167 66.8073 134.526 66.974 134.922 67.1406C135.318 67.2969 135.734 67.4375 136.172 67.5625C136.609 67.6875 137.057 67.7917 137.516 67.875C137.984 67.9479 138.448 67.9844 138.906 67.9844C139.583 67.9844 140.156 67.9271 140.625 67.8125C141.104 67.6979 141.49 67.5365 141.781 67.3281C142.083 67.1094 142.302 66.849 142.438 66.5469C142.573 66.2344 142.641 65.8906 142.641 65.5156C142.641 65.1927 142.589 64.901 142.484 64.6406C142.38 64.3802 142.188 64.125 141.906 63.875C141.635 63.6146 141.26 63.3542 140.781 63.0938C140.302 62.8333 139.688 62.5417 138.938 62.2188C138.188 61.8958 137.51 61.5781 136.906 61.2656C136.312 60.9531 135.807 60.6042 135.391 60.2188C134.974 59.8333 134.651 59.3906 134.422 58.8906C134.203 58.3802 134.094 57.776 134.094 57.0781C134.094 56.349 134.234 55.7031 134.516 55.1406C134.807 54.5677 135.214 54.0885 135.734 53.7031C136.255 53.3177 136.88 53.026 137.609 52.8281C138.339 52.6302 139.151 52.5312 140.047 52.5312C141.057 52.5312 141.979 52.6406 142.812 52.8594C143.656 53.0781 144.453 53.3646 145.203 53.7188L144.219 56.0156C143.542 55.7135 142.844 55.4531 142.125 55.2344C141.417 55.0052 140.693 54.8906 139.953 54.8906C138.891 54.8906 138.104 55.0677 137.594 55.4219C137.083 55.7656 136.828 56.2604 136.828 56.9062C136.828 57.2708 136.885 57.5885 137 57.8594C137.125 58.1302 137.333 58.3854 137.625 58.625C137.917 58.8646 138.307 59.1094 138.797 59.3594C139.286 59.599 139.896 59.8698 140.625 60.1719C141.375 60.4844 142.042 60.7969 142.625 61.1094C143.219 61.4219 143.724 61.776 144.141 62.1719C144.557 62.5573 144.875 63 145.094 63.5C145.312 64 145.422 64.599 145.422 65.2969ZM160.703 70L160.281 67.7031H160.125C159.865 68.151 159.552 68.5417 159.188 68.875C158.833 69.1979 158.443 69.4688 158.016 69.6875C157.589 69.8958 157.135 70.0521 156.656 70.1562C156.177 70.2604 155.688 70.3125 155.188 70.3125C154.24 70.3125 153.406 70.1927 152.688 69.9531C151.969 69.7135 151.37 69.3385 150.891 68.8281C150.411 68.3177 150.047 67.6667 149.797 66.875C149.557 66.0833 149.438 65.1406 149.438 64.0469V52.8438H152.281V63.8906C152.281 65.2448 152.557 66.2604 153.109 66.9375C153.661 67.6146 154.516 67.9531 155.672 67.9531C156.516 67.9531 157.224 67.8177 157.797 67.5469C158.37 67.276 158.828 66.8802 159.172 66.3594C159.526 65.8281 159.776 65.1771 159.922 64.4062C160.078 63.6354 160.156 62.75 160.156 61.75V52.8438H163V70H160.703ZM171.281 70H168.438V45.6875H171.281V70ZM181.906 67.9844C182.094 67.9844 182.302 67.974 182.531 67.9531C182.771 67.9323 183 67.9062 183.219 67.875C183.438 67.8438 183.635 67.8073 183.812 67.7656C184 67.724 184.141 67.6875 184.234 67.6562V69.8125C184.099 69.875 183.927 69.9375 183.719 70C183.51 70.0625 183.281 70.1146 183.031 70.1562C182.781 70.2083 182.521 70.2448 182.25 70.2656C181.979 70.2969 181.714 70.3125 181.453 70.3125C180.807 70.3125 180.208 70.2292 179.656 70.0625C179.104 69.8958 178.625 69.6094 178.219 69.2031C177.823 68.7969 177.51 68.25 177.281 67.5625C177.052 66.8646 176.938 65.9896 176.938 64.9375V54.9844H174.516V53.7188L176.938 52.5L178.156 48.9062H179.797V52.8438H184.109V54.9844H179.797V64.9375C179.797 65.9479 179.958 66.7083 180.281 67.2188C180.615 67.7292 181.156 67.9844 181.906 67.9844ZM170.279 82.8958L175.449 71.4842L173.713 71.5357L169.505 80.6782L165.121 71.7902L163.386 71.8417L168.768 82.9406L170.279 82.8958Z" fill="#D31E30"/>
</g>
<defs>
<filter id="filter0_d_120:87" x="0.109375" y="0.624023" width="188.125" height="90.3165" filterUnits="userSpaceOnUse" color-interpolation-filters="sRGB">
<feFlood flood-opacity="0" result="BackgroundImageFix"/>
<feColorMatrix in="SourceAlpha" type="matrix" values="0 0 0 0 0 0 0 0 0 0 0 0 0 0 0 0 0 0 127 0" result="hardAlpha"/>
<feOffset dy="4"/>
<feGaussianBlur stdDeviation="2"/>
<feComposite in2="hardAlpha" operator="out"/>
<feColorMatrix type="matrix" values="0 0 0 0 0 0 0 0 0 0 0 0 0 0 0 0 0 0 0.25 0"/>
<feBlend mode="normal" in2="BackgroundImageFix" result="effect1_dropShadow_120:87"/>
<feBlend mode="normal" in="SourceGraphic" in2="effect1_dropShadow_120:87" result="shape"/>
</filter>
</defs>
</svg>
