<svg width="512" height="512" viewBox="0 0 512 512" fill="none" xmlns="http://www.w3.org/2000/svg">
<g filter="url(#filter0_b)">
<circle cx="256" cy="256" r="256" fill="url(#paint0_radial)"/>
<circle cx="256" cy="256" r="252" stroke="white" stroke-width="8"/>
</g>
<g filter="url(#filter1_d)">
<path d="M197.198 365.805H185.589C184.954 365.805 184.453 365.756 184.087 365.658C183.745 365.561 183.489 365.377 183.318 365.109C183.147 364.84 183.037 364.474 182.989 364.01C182.964 363.522 182.952 362.899 182.952 362.143C182.952 361.312 182.964 360.641 182.989 360.128C183.037 359.591 183.147 359.176 183.318 358.883C183.489 358.59 183.745 358.395 184.087 358.297C184.453 358.175 184.954 358.114 185.589 358.114H208.074C208.806 358.114 209.38 358.236 209.795 358.48C210.21 358.725 210.503 359.054 210.674 359.469C210.845 359.884 210.906 360.36 210.857 360.897C210.808 361.41 210.674 361.959 210.454 362.545L195.476 395.541H207.122C207.757 395.541 208.245 395.59 208.587 395.688C208.953 395.761 209.221 395.919 209.392 396.164C209.563 396.408 209.661 396.75 209.685 397.189C209.734 397.604 209.759 398.153 209.759 398.837C209.759 399.521 209.734 400.082 209.685 400.521C209.661 400.937 209.563 401.266 209.392 401.51C209.221 401.754 208.953 401.925 208.587 402.023C208.245 402.096 207.757 402.133 207.122 402.133H188.006C186.98 402.133 186.175 402.023 185.589 401.803C185.003 401.559 184.588 401.254 184.344 400.888C184.124 400.497 184.038 400.045 184.087 399.533C184.136 399.02 184.27 398.471 184.49 397.885L197.198 365.805ZM216.094 368.808C216.021 366.854 216.411 365.182 217.266 363.791C218.145 362.375 219.317 361.215 220.782 360.312C222.271 359.408 223.98 358.749 225.908 358.334C227.837 357.895 229.815 357.675 231.841 357.675C233.867 357.675 235.845 357.895 237.774 358.334C239.702 358.749 241.399 359.408 242.864 360.312C244.353 361.215 245.525 362.375 246.38 363.791C247.259 365.182 247.661 366.854 247.588 368.808L246.746 391.989C246.673 393.991 246.209 395.675 245.354 397.042C244.5 398.385 243.389 399.472 242.022 400.302C240.655 401.107 239.092 401.693 237.334 402.06C235.576 402.401 233.758 402.572 231.878 402.572C229.973 402.572 228.142 402.401 226.385 402.06C224.627 401.693 223.052 401.107 221.66 400.302C220.293 399.472 219.182 398.385 218.328 397.042C217.473 395.7 217.01 394.027 216.936 392.025L216.094 368.808ZM226.97 392.318C226.946 393.246 227.019 394.027 227.19 394.662C227.386 395.297 227.679 395.81 228.069 396.2C228.484 396.591 228.997 396.872 229.607 397.042C230.242 397.213 230.987 397.299 231.841 397.299C233.55 397.299 234.795 396.933 235.576 396.2C236.382 395.468 236.761 394.162 236.712 392.282L235.979 368.185C235.955 367.16 235.833 366.33 235.613 365.695C235.418 365.06 235.137 364.572 234.771 364.23C234.405 363.888 233.977 363.668 233.489 363.571C233.001 363.449 232.451 363.388 231.841 363.388C231.231 363.388 230.681 363.449 230.193 363.571C229.705 363.668 229.278 363.888 228.911 364.23C228.545 364.572 228.252 365.06 228.033 365.695C227.837 366.33 227.727 367.16 227.703 368.185L226.97 392.318ZM256.084 360.788C256.084 360.275 256.133 359.848 256.231 359.506C256.353 359.14 256.597 358.859 256.963 358.664C257.354 358.468 257.915 358.334 258.648 358.261C259.405 358.163 260.406 358.114 261.651 358.114C262.896 358.114 263.885 358.163 264.617 358.261C265.374 358.334 265.935 358.468 266.302 358.664C266.692 358.859 266.936 359.14 267.034 359.506C267.156 359.848 267.217 360.275 267.217 360.788L267.144 363.021C267.827 362.24 268.523 361.532 269.231 360.897C269.964 360.238 270.733 359.677 271.538 359.213C272.368 358.725 273.247 358.346 274.175 358.078C275.103 357.809 276.116 357.675 277.215 357.675C278.704 357.675 280.083 357.943 281.353 358.48C282.647 359.018 283.745 359.799 284.649 360.824C285.576 361.85 286.284 363.095 286.773 364.56C287.285 366.024 287.517 367.685 287.469 369.54L286.59 400.045C286.59 400.509 286.529 400.875 286.407 401.144C286.284 401.413 286.053 401.62 285.711 401.767C285.369 401.913 284.881 402.011 284.246 402.06C283.636 402.108 282.818 402.133 281.792 402.133C280.767 402.133 279.937 402.108 279.302 402.06C278.692 402.011 278.216 401.913 277.874 401.767C277.556 401.62 277.337 401.413 277.215 401.144C277.093 400.875 277.032 400.509 277.032 400.045L276.189 370.602C276.165 369.65 276.043 368.856 275.823 368.222C275.603 367.587 275.31 367.086 274.944 366.72C274.578 366.354 274.138 366.098 273.626 365.951C273.137 365.805 272.6 365.731 272.014 365.731C271.087 365.731 270.269 365.988 269.561 366.5C268.853 367.013 268.242 367.624 267.73 368.332L266.814 400.045C266.814 400.509 266.753 400.875 266.631 401.144C266.509 401.413 266.277 401.62 265.935 401.767C265.594 401.913 265.105 402.011 264.47 402.06C263.86 402.108 263.042 402.133 262.017 402.133C260.991 402.133 260.161 402.108 259.527 402.06C258.916 402.011 258.44 401.913 258.098 401.767C257.781 401.62 257.561 401.413 257.439 401.144C257.317 400.875 257.256 400.509 257.256 400.045L256.084 360.788ZM295.269 368.808C295.196 366.854 295.598 365.182 296.477 363.791C297.381 362.375 298.577 361.215 300.066 360.312C301.58 359.408 303.301 358.749 305.23 358.334C307.183 357.895 309.173 357.675 311.199 357.675C313.128 357.675 315.02 357.895 316.875 358.334C318.731 358.749 320.379 359.408 321.819 360.312C323.26 361.215 324.395 362.375 325.225 363.791C326.079 365.182 326.47 366.854 326.397 368.808L325.847 382.321C325.823 382.785 325.738 383.151 325.591 383.419C325.469 383.688 325.225 383.896 324.859 384.042C324.492 384.188 323.968 384.286 323.284 384.335C322.625 384.384 321.746 384.408 320.647 384.408H306.365L306.145 392.318C306.121 393.246 306.206 394.027 306.402 394.662C306.621 395.297 306.939 395.81 307.354 396.2C307.769 396.591 308.282 396.872 308.892 397.042C309.502 397.213 310.198 397.299 310.979 397.299C312.542 397.299 313.689 396.957 314.422 396.273C315.154 395.59 315.52 394.381 315.52 392.648V391.513C315.52 391.049 315.581 390.67 315.703 390.377C315.825 390.06 316.057 389.816 316.399 389.645C316.765 389.45 317.278 389.315 317.937 389.242C318.596 389.169 319.475 389.132 320.574 389.132C321.648 389.132 322.515 389.169 323.174 389.242C323.833 389.315 324.334 389.45 324.676 389.645C325.042 389.816 325.274 390.048 325.371 390.341C325.493 390.634 325.554 391.012 325.554 391.476V393.087C325.554 395.016 325.139 396.591 324.309 397.812C323.479 399.032 322.381 399.997 321.013 400.705C319.671 401.413 318.12 401.901 316.363 402.169C314.629 402.438 312.847 402.572 311.016 402.572C309.16 402.572 307.354 402.401 305.596 402.06C303.838 401.693 302.263 401.107 300.872 400.302C299.505 399.472 298.382 398.385 297.503 397.042C296.648 395.7 296.184 394.027 296.111 392.025L295.269 368.808ZM315.52 378.915L315.154 368.185C315.13 367.16 315.008 366.33 314.788 365.695C314.593 365.06 314.312 364.572 313.946 364.23C313.604 363.888 313.189 363.668 312.7 363.571C312.237 363.449 311.736 363.388 311.199 363.388C310.589 363.388 310.027 363.449 309.514 363.571C309.002 363.668 308.55 363.888 308.159 364.23C307.793 364.572 307.488 365.06 307.244 365.695C307.024 366.33 306.902 367.16 306.878 368.185L306.548 378.915H315.52Z" fill="white"/>
</g>
<g filter="url(#filter2_d)">
<path d="M112.732 170.334C112.67 168.726 112.825 167.427 113.196 166.437C113.567 165.448 114.34 164.675 115.515 164.118C116.752 163.561 118.484 163.19 120.711 163.005C122.937 162.757 125.906 162.634 129.617 162.634C130.668 162.634 131.658 162.634 132.586 162.634C133.575 162.634 134.503 162.665 135.369 162.726H172.571C174.179 162.726 175.416 162.85 176.282 163.098C177.21 163.345 177.859 163.809 178.23 164.489C178.663 165.17 178.911 166.097 178.972 167.272C179.096 168.447 179.158 169.963 179.158 171.818C179.158 173.674 179.096 175.22 178.972 176.457C178.911 177.632 178.663 178.56 178.23 179.24C177.859 179.859 177.21 180.292 176.282 180.539C175.416 180.786 174.179 180.91 172.571 180.91H146.223L144.553 237.873H166.912C168.52 237.873 169.757 237.997 170.623 238.244C171.551 238.491 172.2 238.955 172.571 239.636C173.004 240.254 173.251 241.151 173.313 242.326C173.437 243.439 173.499 244.893 173.499 246.686C173.499 248.48 173.437 249.964 173.313 251.14C173.251 252.253 173.004 253.15 172.571 253.83C172.2 254.448 171.551 254.881 170.623 255.129C169.757 255.376 168.52 255.5 166.912 255.5H144.09L142.42 313.576C142.42 314.813 142.265 315.803 141.956 316.545C141.708 317.287 141.121 317.875 140.193 318.308C139.327 318.74 138.059 319.05 136.389 319.235C134.72 319.359 132.462 319.421 129.617 319.421C126.772 319.421 124.484 319.359 122.752 319.235C121.082 319.112 119.814 318.833 118.948 318.4C118.082 317.967 117.495 317.349 117.185 316.545C116.938 315.679 116.783 314.535 116.721 313.112L112.732 170.334ZM195.022 170.334C194.96 168.726 195.115 167.427 195.486 166.437C195.857 165.448 196.63 164.675 197.805 164.118C199.042 163.561 200.774 163.19 203.001 163.005C205.289 162.757 208.258 162.634 211.907 162.634C215.556 162.634 218.494 162.757 220.72 163.005C222.947 163.19 224.648 163.561 225.823 164.118C227.06 164.675 227.864 165.448 228.235 166.437C228.668 167.427 228.854 168.726 228.792 170.334L225.637 291.96C225.576 294.558 225.792 296.722 226.287 298.454C226.844 300.186 227.709 301.577 228.885 302.629C230.122 303.618 231.699 304.33 233.616 304.763C235.533 305.196 237.853 305.412 240.574 305.412C243.295 305.412 245.615 305.196 247.532 304.763C249.449 304.33 250.996 303.618 252.171 302.629C253.408 301.577 254.274 300.186 254.768 298.454C255.325 296.722 255.572 294.558 255.511 291.96L252.263 170.334C252.202 168.726 252.356 167.427 252.727 166.437C253.098 165.448 253.872 164.675 255.047 164.118C256.284 163.561 258.015 163.19 260.242 163.005C262.469 162.757 265.437 162.634 269.148 162.634C272.797 162.634 275.735 162.757 277.962 163.005C280.188 163.19 281.889 163.561 283.064 164.118C284.301 164.675 285.105 165.448 285.476 166.437C285.909 167.427 286.095 168.726 286.033 170.334L282.786 291.125C282.662 295.145 281.796 298.949 280.188 302.536C278.58 306.123 276.075 309.247 272.674 311.906C269.334 314.566 265.004 316.669 259.685 318.215C254.428 319.761 248.058 320.534 240.574 320.534C233.09 320.534 226.689 319.761 221.37 318.215C216.051 316.669 211.691 314.566 208.289 311.906C204.949 309.247 202.475 306.123 200.867 302.536C199.259 298.949 198.424 295.145 198.362 291.125L195.022 170.334ZM307.928 170.334C307.866 168.726 307.989 167.427 308.299 166.437C308.608 165.448 309.257 164.675 310.247 164.118C311.298 163.561 312.783 163.19 314.7 163.005C316.679 162.757 319.308 162.634 322.586 162.634C324.998 162.634 327.039 162.696 328.709 162.819C330.441 162.943 331.832 163.19 332.884 163.561C333.935 163.871 334.739 164.304 335.296 164.86C335.914 165.417 336.316 166.159 336.502 167.087L371.106 261.252H371.848L367.488 170.334C367.426 168.726 367.55 167.427 367.859 166.437C368.23 165.448 368.942 164.675 369.993 164.118C371.106 163.561 372.652 163.19 374.632 163.005C376.673 162.757 379.332 162.634 382.61 162.634C386.259 162.634 389.197 162.757 391.424 163.005C393.65 163.19 395.32 163.561 396.433 164.118C397.609 164.675 398.382 165.448 398.753 166.437C399.124 167.427 399.278 168.726 399.217 170.334L395.135 310.329C395.073 311.752 394.918 313.019 394.671 314.133C394.423 315.246 393.928 316.205 393.186 317.009C392.444 317.813 391.331 318.431 389.846 318.864C388.424 319.235 386.507 319.421 384.095 319.421C381.744 319.421 379.827 319.266 378.343 318.957C376.858 318.648 375.776 317.875 375.095 316.638L374.91 316.823L337.337 220.803H336.316L335.574 313.112C335.512 314.535 335.358 315.679 335.11 316.545C334.863 317.349 334.368 317.967 333.626 318.4C332.884 318.833 331.77 319.112 330.286 319.235C328.863 319.359 326.946 319.421 324.534 319.421C321.751 319.421 319.524 319.359 317.854 319.235C316.246 319.112 315.009 318.833 314.143 318.4C313.277 317.967 312.69 317.349 312.381 316.545C312.133 315.679 311.979 314.535 311.917 313.112L307.928 170.334Z" fill="white"/>
</g>
<defs>
<filter id="filter0_b" x="-10" y="-10" width="532" height="532" filterUnits="userSpaceOnUse" color-interpolation-filters="sRGB">
<feFlood flood-opacity="0" result="BackgroundImageFix"/>
<feGaussianBlur in="BackgroundImage" stdDeviation="5"/>
<feComposite in2="SourceAlpha" operator="in" result="effect1_backgroundBlur"/>
<feBlend mode="normal" in="SourceGraphic" in2="effect1_backgroundBlur" result="shape"/>
</filter>
<filter id="filter1_d" x="177.952" y="357.675" width="153.454" height="54.8975" filterUnits="userSpaceOnUse" color-interpolation-filters="sRGB">
<feFlood flood-opacity="0" result="BackgroundImageFix"/>
<feColorMatrix in="SourceAlpha" type="matrix" values="0 0 0 0 0 0 0 0 0 0 0 0 0 0 0 0 0 0 127 0"/>
<feOffset dy="5"/>
<feGaussianBlur stdDeviation="2.5"/>
<feColorMatrix type="matrix" values="0 0 0 0 0 0 0 0 0 0 0 0 0 0 0 0 0 0 0.35 0"/>
<feBlend mode="normal" in2="BackgroundImageFix" result="effect1_dropShadow"/>
<feBlend mode="normal" in="SourceGraphic" in2="effect1_dropShadow" result="shape"/>
</filter>
<filter id="filter2_d" x="102.719" y="162.634" width="306.511" height="177.9" filterUnits="userSpaceOnUse" color-interpolation-filters="sRGB">
<feFlood flood-opacity="0" result="BackgroundImageFix"/>
<feColorMatrix in="SourceAlpha" type="matrix" values="0 0 0 0 0 0 0 0 0 0 0 0 0 0 0 0 0 0 127 0"/>
<feOffset dy="10"/>
<feGaussianBlur stdDeviation="5"/>
<feColorMatrix type="matrix" values="0 0 0 0 0 0 0 0 0 0 0 0 0 0 0 0 0 0 0.35 0"/>
<feBlend mode="normal" in2="BackgroundImageFix" result="effect1_dropShadow"/>
<feBlend mode="normal" in="SourceGraphic" in2="effect1_dropShadow" result="shape"/>
</filter>
<radialGradient id="paint0_radial" cx="0" cy="0" r="1" gradientUnits="userSpaceOnUse" gradientTransform="translate(256 256) rotate(90) scale(256)">
<stop stop-color="#03CEA4"/>
<stop offset="0.671875" stop-color="#0DC9A2"/>
<stop offset="1" stop-color="#14B191"/>
</radialGradient>
</defs>
</svg>
