<svg width="80" height="76" viewBox="0 0 80 76" fill="none" xmlns="http://www.w3.org/2000/svg">
<path opacity="0.4" d="M48.061 17.3848C46.4742 17.1063 45.0169 18.0683 44.7148 19.5398C44.4127 21.0113 45.4285 22.448 46.9722 22.7359C51.6197 23.5967 55.2083 27.0143 56.1179 31.4446V31.4478C56.3768 32.7231 57.5586 33.6503 58.9197 33.6503C59.1023 33.6503 59.2849 33.6344 59.4708 33.6028C61.0144 33.3085 62.0302 31.875 61.7281 30.4003C60.3704 23.7834 55.0091 18.6727 48.061 17.3848" fill="white"/>
<path opacity="0.4" d="M47.8536 6.35848C47.11 6.25722 46.3631 6.46608 45.7688 6.91544C45.158 7.37112 44.7762 8.02934 44.6933 8.76666C44.5173 10.2571 45.6493 11.6052 47.2162 11.7729C58.0217 12.9185 66.4205 20.9152 67.6355 31.2124C67.7982 32.5921 69.0165 33.6333 70.4705 33.6333C70.5801 33.6333 70.6863 33.6269 70.7958 33.6143C71.556 33.5352 72.2333 33.1776 72.7113 32.608C73.186 32.0384 73.4018 31.3295 73.3155 30.6048C71.8017 17.757 61.3348 7.78567 47.8536 6.35848" fill="white"/>
<path d="M58.683 46.4647C56.5219 46.028 54.8123 46.9774 53.2985 47.8065C51.7482 48.6609 48.797 50.9235 47.1106 50.3412C38.4596 46.9742 30.3231 39.8066 26.8009 31.5916C26.1801 29.9556 28.5603 27.1487 29.4533 25.6677C30.3264 24.231 31.309 22.595 30.8608 20.5381C30.4558 18.6868 25.2174 12.38 23.365 10.6553C22.1401 9.51612 20.8919 8.88955 19.6071 8.78512C14.777 8.59209 9.38256 14.6901 8.43645 16.1489C6.06289 19.2596 6.07949 23.3988 8.47629 28.4176C14.2525 41.8984 36.0993 62.2429 50.4004 67.9137C53.0363 69.0814 55.453 69.6668 57.6207 69.6668C59.742 69.6668 61.6309 69.1067 63.2542 67.996C64.4758 67.3282 71.1882 61.9708 71.009 57.2778C70.906 56.0816 70.2454 54.8855 69.057 53.7273C67.2445 51.9583 60.625 46.854 58.683 46.4647" fill="white"/>
</svg>
