<svg width="15" height="14" viewBox="0 0 15 14" fill="none" xmlns="http://www.w3.org/2000/svg">
<path fill-rule="evenodd" clip-rule="evenodd" d="M1.97834 0.946195C1.68199 0.656802 1.20715 0.662444 0.917753 0.958796C0.62836 1.25515 0.634002 1.72999 0.930354 2.01938L6.40645 7.36688L0.936525 12.7072C0.640143 12.9966 0.634452 13.4714 0.923814 13.7678C1.21318 14.0642 1.68802 14.0699 1.9844 13.7805L7.47994 8.41517L12.9816 13.7876C13.278 14.077 13.7528 14.0714 14.0422 13.775C14.3316 13.4787 14.326 13.0039 14.0296 12.7145L8.55354 7.367L14.0256 2.02454C14.322 1.73518 14.3277 1.26034 14.0383 0.96396C13.749 0.667577 13.2741 0.661886 12.9777 0.951248L7.48005 6.31871L1.97834 0.946195Z" fill="black"/>
</svg>
