<svg width="24" height="24" viewBox="0 0 24 24" fill="none" xmlns="http://www.w3.org/2000/svg">
<path d="M23.5891 4.29272C23.3707 2.24597 21.7542 0.62915 19.7073 0.410889C14.5741 -0.136963 9.4259 -0.136963 4.29291 0.410889C2.24597 0.629333 0.629333 2.24597 0.410889 4.29272C-0.136963 9.42572 -0.136963 14.5741 0.410889 19.7071C0.629333 21.754 2.24597 23.3707 4.29272 23.5891C9.42572 24.137 14.5741 24.137 19.7073 23.5891C21.7542 23.3707 23.3707 21.754 23.5891 19.7071C24.137 14.5741 24.137 9.4259 23.5891 4.29272Z" fill="url(#paint0_radial_10:3294)"/>
<path d="M22.2837 5.16083C22.09 3.3446 20.6556 1.90997 18.8391 1.71606C14.2842 1.2301 9.71573 1.2301 5.1608 1.71606C3.34457 1.90997 1.90994 3.3446 1.71603 5.16083C1.23007 9.71576 1.23007 14.2842 1.71603 18.839C1.90994 20.6554 3.34457 22.09 5.1608 22.2838C9.71573 22.7699 14.2842 22.7699 18.839 22.2838C20.6554 22.09 22.09 20.6554 22.2837 18.839C22.7699 14.2842 22.7699 9.71576 22.2837 5.16083Z" fill="url(#paint1_linear_10:3294)"/>
<path d="M0.359375 19.2096C0.375855 19.3755 0.392883 19.5414 0.410645 19.7073C0.629089 21.754 2.24573 23.3707 4.29266 23.5891C9.42566 24.137 14.574 24.137 19.707 23.5891C21.754 23.3707 23.3704 21.754 23.5889 19.7073C23.6066 19.5414 23.6237 19.3755 23.6403 19.2096H0.359375Z" fill="url(#paint2_linear_10:3294)"/>
<path d="M23.5893 19.7071C23.8837 16.949 24.0196 14.1865 23.9976 11.4243L18.5118 5.93847C17.8264 5.15606 16.8254 4.66772 15.6491 4.62542C13.2301 4.53827 10.8034 4.54266 8.38403 4.62579C6.37463 4.695 4.96948 6.04559 4.60913 8.03064C4.54559 8.3811 4.50751 8.73614 4.45752 9.08917V14.9086C4.48517 15.0972 4.52582 15.2849 4.53845 15.4746C4.61902 16.682 5.11523 17.7162 5.90973 18.4158L11.4922 23.9982C14.2319 24.0174 16.9717 23.8812 19.7075 23.5891C21.7544 23.3707 23.3708 21.754 23.5893 19.7071Z" fill="url(#paint3_linear_10:3294)"/>
<path d="M4.45752 9.08917C4.50751 8.73614 4.54559 8.3811 4.60913 8.03064C4.9693 6.04559 6.37463 4.695 8.38403 4.62579C10.8034 4.54266 13.2301 4.53827 15.6491 4.62542C17.8361 4.70416 19.42 6.32354 19.4883 8.51129C19.561 10.8343 19.561 13.1631 19.4883 15.4861C19.42 17.6739 17.8367 19.2931 15.6493 19.372C13.2303 19.4593 10.803 19.4615 8.38422 19.3707C6.19684 19.2885 4.68475 17.6655 4.53845 15.4744C4.52582 15.2849 4.48517 15.097 4.45752 14.9084C4.45752 12.9686 4.45752 11.0288 4.45752 9.08917ZM12.0022 18.0754C13.1093 18.0754 14.2174 18.1086 15.323 18.0677C17.0565 18.0035 18.1227 16.9689 18.1631 15.2371C18.2133 13.0792 18.2133 10.9184 18.1631 8.76031C18.1227 7.02887 17.0557 5.97015 15.323 5.93335C13.1237 5.88684 10.9221 5.8872 8.72278 5.93335C7.00323 5.96942 5.9339 7.00671 5.88721 8.71911C5.82788 10.9043 5.82788 13.0933 5.88721 15.2785C5.9339 16.9907 7.00323 18.004 8.72296 18.0677C9.81464 18.1084 10.9091 18.0754 12.0022 18.0754Z" fill="url(#paint4_linear_10:3294)"/>
<path d="M4.45752 9.08917C4.50751 8.73614 4.54559 8.3811 4.60913 8.03064C4.9693 6.04559 6.37463 4.695 8.38403 4.62579C10.8034 4.54266 13.2301 4.53827 15.6491 4.62542C17.8361 4.70416 19.42 6.32354 19.4883 8.51129C19.561 10.8343 19.561 13.1631 19.4883 15.4861C19.42 17.6739 17.8367 19.2931 15.6493 19.372C13.2303 19.4593 10.803 19.4615 8.38422 19.3707C6.19684 19.2885 4.68475 17.6655 4.53845 15.4744C4.52582 15.2849 4.48517 15.097 4.45752 14.9084C4.45752 12.9686 4.45752 11.0288 4.45752 9.08917ZM12.0022 18.0754C13.1093 18.0754 14.2174 18.1086 15.323 18.0677C17.0565 18.0035 18.1227 16.9689 18.1631 15.2371C18.2133 13.0792 18.2133 10.9184 18.1631 8.76031C18.1227 7.02887 17.0557 5.97015 15.323 5.93335C13.1237 5.88684 10.9221 5.8872 8.72278 5.93335C7.00323 5.96942 5.9339 7.00671 5.88721 8.71911C5.82788 10.9043 5.82788 13.0933 5.88721 15.2785C5.9339 16.9907 7.00323 18.004 8.72296 18.0677C9.81464 18.1084 10.9091 18.0754 12.0022 18.0754Z" fill="white"/>
<path d="M12.0004 8.15607C9.87744 8.15607 8.15625 9.87708 8.15625 12C8.15625 14.1231 9.87744 15.8441 12.0004 15.8441C14.1235 15.8441 15.8445 14.1231 15.8445 12C15.8445 9.87708 14.1235 8.15607 12.0004 8.15607ZM12.0004 14.5206C10.6082 14.5206 9.47974 13.3922 9.47974 12C9.47974 10.6078 10.6082 9.47937 12.0004 9.47937C13.3925 9.47937 14.521 10.6078 14.521 12C14.521 13.3922 13.3925 14.5206 12.0004 14.5206Z" fill="white"/>
<path d="M16.9833 7.98065C16.9833 8.48566 16.5739 8.89508 16.0689 8.89508C15.5639 8.89508 15.1543 8.48566 15.1543 7.98065C15.1543 7.47546 15.5639 7.06604 16.0689 7.06604C16.5739 7.06604 16.9833 7.47546 16.9833 7.98065Z" fill="white"/>
<defs>
<radialGradient id="paint0_radial_10:3294" cx="0" cy="0" r="1" gradientUnits="userSpaceOnUse" gradientTransform="translate(4.91986 20.9741) scale(26.4678)">
<stop stop-color="#FAE100"/>
<stop offset="0.0544" stop-color="#FADC04"/>
<stop offset="0.1167" stop-color="#FBCE0E"/>
<stop offset="0.1829" stop-color="#FCB720"/>
<stop offset="0.2514" stop-color="#FE9838"/>
<stop offset="0.3054" stop-color="#FF7950"/>
<stop offset="0.4922" stop-color="#FF1C74"/>
<stop offset="1" stop-color="#6C1CD1"/>
</radialGradient>
<linearGradient id="paint1_linear_10:3294" x1="9.20494" y1="10.4278" x2="-31.4539" y2="-12.4428" gradientUnits="userSpaceOnUse">
<stop stop-color="#A1B5D8" stop-opacity="0"/>
<stop offset="0.3094" stop-color="#90A2BD" stop-opacity="0.309804"/>
<stop offset="0.7554" stop-color="#7C8B9C" stop-opacity="0.756863"/>
<stop offset="1" stop-color="#748290"/>
</linearGradient>
<linearGradient id="paint2_linear_10:3294" x1="11.9998" y1="21.1859" x2="11.9998" y2="24.9269" gradientUnits="userSpaceOnUse">
<stop stop-color="#FAE100" stop-opacity="0"/>
<stop offset="0.3068" stop-color="#FCA800" stop-opacity="0.305882"/>
<stop offset="0.6275" stop-color="#FE7300" stop-opacity="0.627451"/>
<stop offset="0.8685" stop-color="#FF5200" stop-opacity="0.866667"/>
<stop offset="1" stop-color="#FF4500"/>
</linearGradient>
<linearGradient id="paint3_linear_10:3294" x1="10.6348" y1="10.6007" x2="4.69521" y2="4.66107" gradientUnits="userSpaceOnUse">
<stop stop-color="#833AB4" stop-opacity="0"/>
<stop offset="1" stop-color="#833AB4"/>
</linearGradient>
<linearGradient id="paint4_linear_10:3294" x1="16.7654" y1="7.26794" x2="7.05687" y2="16.9765" gradientUnits="userSpaceOnUse">
<stop stop-color="#833AB4"/>
<stop offset="0.0922" stop-color="#9C3495"/>
<stop offset="0.2927" stop-color="#DC2546"/>
<stop offset="0.392" stop-color="#FD1D1D"/>
<stop offset="0.5589" stop-color="#FC6831"/>
<stop offset="0.6887" stop-color="#FC9B40"/>
<stop offset="0.7521" stop-color="#FCAF45"/>
<stop offset="0.7806" stop-color="#FDB750"/>
<stop offset="0.8656" stop-color="#FECB6A"/>
<stop offset="0.9415" stop-color="#FFD87A"/>
<stop offset="1" stop-color="#FFDC80"/>
</linearGradient>
</defs>
</svg>
