<svg width="40" height="40" viewBox="0 0 40 40" fill="none" xmlns="http://www.w3.org/2000/svg">
<path fill-rule="evenodd" clip-rule="evenodd" d="M10.7924 3.33939L10.745 3.33625C8.55023 3.23414 5.45308 5.8731 4.30868 7.78181C3.05301 9.49694 3.02887 11.7746 4.12541 14.4092L4.29828 14.807C7.18767 21.9229 18.03 32.7516 25.118 35.7163C27.83 36.985 30.2471 37.0082 32.1515 35.6368C33.8259 34.6797 36.5718 31.4948 36.4924 29.2328C36.417 28.3021 35.9844 27.5424 35.3124 26.8508L35.1484 26.6878L34.692 26.2657C33.0389 24.7876 30.177 22.6831 29.2917 22.497C28.2524 22.2804 27.5476 22.4743 26.436 23.0873L26.022 23.3227C25.2315 23.7786 24.9488 23.8565 24.5743 23.7199C20.6195 22.0963 17.8307 19.2936 16.1964 15.2733C16.0902 14.9754 16.1427 14.7153 16.4865 14.0845L16.6676 13.7629C17.4168 12.4543 17.668 11.7145 17.432 10.5754L17.3904 10.4278C17.0032 9.30074 14.6306 6.12094 13.3132 4.73663L13.101 4.52191C12.4144 3.84764 11.6595 3.41404 10.7924 3.33939ZM10.6081 5.77334L10.6985 5.79069C10.8567 5.83534 11.0432 5.94487 11.2533 6.12535L11.4062 6.26524L11.695 6.56921C12.8151 7.80593 14.9851 10.7224 15.0568 11.0711C15.1247 11.3985 15.0497 11.6721 14.6942 12.317L14.5083 12.6457C13.7256 14.0162 13.4833 14.8999 13.9331 16.1495C15.8317 20.8227 19.0994 24.1068 23.7022 25.9952C24.8893 26.4293 25.7308 26.2558 26.9231 25.6096L27.3315 25.3789C28.1405 24.9111 28.4367 24.8095 28.7972 24.8847C29.1496 24.9587 32.3023 27.325 33.4579 28.4369L33.5929 28.571C33.891 28.878 34.054 29.1642 34.0715 29.3765C34.0875 29.8727 33.5906 30.805 32.7134 31.8225C32.0888 32.5469 31.2779 33.2875 30.9263 33.5331L30.8423 33.5874C29.7063 34.3982 28.3034 34.433 26.4483 33.6425L26.0952 33.4846C19.6866 30.8031 9.60832 20.8134 6.69753 14.2468L6.52504 13.841C5.62309 11.846 5.54826 10.3875 6.19588 9.32639L6.32575 9.13204C7.07636 7.88918 9.33845 5.93158 10.4648 5.78089L10.6081 5.77334ZM24.036 3.73962L24.2008 3.74681C30.7505 4.47788 35.9227 9.67173 36.6588 16.2558C36.7337 16.925 36.2547 17.5285 35.589 17.6038C34.9234 17.679 34.3231 17.1974 34.2482 16.5282C33.6387 11.0765 29.3562 6.77605 23.9331 6.17074C23.2674 6.09643 22.7876 5.49358 22.8615 4.82423C22.9231 4.26643 23.3498 3.83849 23.8756 3.75434L24.036 3.73962ZM24.1354 9.5017L24.2991 9.52243C27.6463 10.1784 30.262 12.8081 30.9144 16.1734C31.0426 16.8344 30.6134 17.4747 29.956 17.6035C29.2985 17.7324 28.6616 17.301 28.5334 16.6399C28.07 14.2496 26.2126 12.3821 23.835 11.9162C23.1775 11.7874 22.7484 11.147 22.8765 10.486C22.9833 9.93517 23.4434 9.54377 23.9743 9.50316L24.1354 9.5017Z" fill="white"/>
</svg>
